<svg xmlns="http://www.w3.org/2000/svg" viewBox="0 0 500 500"><g id="freepik--Floor--inject-5"><ellipse cx="250" cy="337.01" rx="237.16" ry="142" style="fill:#f5f5f5"></ellipse></g><g id="freepik--Shadows--inject-5"><ellipse cx="378.83" cy="291.05" rx="41.83" ry="26.02" style="fill:#e0e0e0"></ellipse><ellipse cx="264.91" cy="349.55" rx="71.36" ry="42.04" style="fill:#e0e0e0"></ellipse><ellipse cx="389.64" cy="413.92" rx="29.99" ry="17.67" style="fill:#e0e0e0"></ellipse><path d="M286.56,212.06,75.87,332.8a20.46,20.46,0,0,1-20.42,0l-8.94-5.26a8.09,8.09,0,0,1,0-14L257.2,192.79a20.46,20.46,0,0,1,20.42,0l8.94,5.26A8.09,8.09,0,0,1,286.56,212.06Z" style="fill:#e0e0e0"></path><polygon points="298.64 437.65 342.29 462.85 379.76 441.4 337.37 415.66 298.64 437.65" style="fill:#e0e0e0"></polygon></g><g id="freepik--Grid--inject-5"><path d="M282.27,432.44a.42.42,0,0,1-.24-.07L121.54,339.72a.5.5,0,0,1,.5-.87l160.49,92.66a.5.5,0,0,1-.26.93Z" style="fill:#455a64"></path><path d="M300.63,422.47a.45.45,0,0,1-.25-.07l-161-93a.5.5,0,1,1,.5-.87l161,93a.5.5,0,0,1-.25.93Z" style="fill:#455a64"></path><path d="M318.23,412.07A.47.47,0,0,1,318,412L157.17,319.16a.51.51,0,0,1-.18-.69.49.49,0,0,1,.68-.18l160.81,92.85a.5.5,0,0,1,.19.68A.51.51,0,0,1,318.23,412.07Z" style="fill:#455a64"></path><path d="M335.84,401.67a.45.45,0,0,1-.25-.07L175,308.87a.5.5,0,1,1,.5-.86l160.61,92.72a.51.51,0,0,1,.18.69A.5.5,0,0,1,335.84,401.67Z" style="fill:#455a64"></path><path d="M353.45,391.27a.55.55,0,0,1-.25-.07L192.8,298.59a.5.5,0,0,1-.19-.68.51.51,0,0,1,.69-.18l160.4,92.6a.51.51,0,0,1,.18.69A.5.5,0,0,1,353.45,391.27Z" style="fill:#455a64"></path><path d="M371.87,381.33a.51.51,0,0,1-.25-.06L210.88,288.46a.5.5,0,1,1,.5-.86l160.74,92.8a.5.5,0,0,1-.25.93Z" style="fill:#455a64"></path><path d="M389.64,371a.42.42,0,0,1-.24-.07L228.44,278a.49.49,0,0,1-.19-.68.51.51,0,0,1,.69-.18l161,92.93a.5.5,0,0,1-.26.93Z" style="fill:#455a64"></path><path d="M247.47,432.09a.5.5,0,0,1-.25-.93L389.4,349.07a.5.5,0,0,1,.5.87L247.72,432A.45.45,0,0,1,247.47,432.09Z" style="fill:#455a64"></path><path d="M229.7,421.83a.5.5,0,0,1-.25-.93l142.16-82.07a.5.5,0,1,1,.5.86L230,421.77A.54.54,0,0,1,229.7,421.83Z" style="fill:#455a64"></path><path d="M212,411.57a.5.5,0,0,1-.43-.25.51.51,0,0,1,.18-.69l142.12-82.05a.49.49,0,0,1,.68.18.51.51,0,0,1-.18.69L212.2,411.5A.55.55,0,0,1,212,411.57Z" style="fill:#455a64"></path><path d="M194.15,401.33a.5.5,0,0,1-.43-.25.51.51,0,0,1,.18-.69L336,318.33a.51.51,0,0,1,.68.19.49.49,0,0,1-.18.68L194.4,401.26A.55.55,0,0,1,194.15,401.33Z" style="fill:#455a64"></path><path d="M176.36,391.08a.5.5,0,0,1-.25-.93l142.13-82.06a.5.5,0,1,1,.5.86L176.61,391A.45.45,0,0,1,176.36,391.08Z" style="fill:#455a64"></path><path d="M158.69,380.77a.5.5,0,0,1-.26-.93l142-82a.5.5,0,0,1,.5.87l-142,82A.42.42,0,0,1,158.69,380.77Z" style="fill:#455a64"></path><path d="M140.84,370.56a.5.5,0,0,1-.43-.25.51.51,0,0,1,.18-.69l142.07-82a.5.5,0,1,1,.5.86l-142.07,82A.59.59,0,0,1,140.84,370.56Z" style="fill:#455a64"></path><path d="M123,360.36a.5.5,0,0,1-.25-.93l142.16-82.08a.51.51,0,0,1,.69.18.52.52,0,0,1-.19.69L123.21,360.29A.47.47,0,0,1,123,360.36Z" style="fill:#455a64"></path><path d="M264.89,442.67a.43.43,0,0,1-.25-.07L103.89,349.91a.5.5,0,0,1,0-.87l142.72-82.38a.5.5,0,0,1,.5,0l161.37,92.89a.52.52,0,0,1,.25.44.5.5,0,0,1-.25.43L265.14,442.6A.47.47,0,0,1,264.89,442.67ZM105.14,349.48l159.75,92.11L407.22,360,246.86,267.67Z" style="fill:#455a64"></path></g><g id="freepik--Window--inject-5"><path d="M58.15,326.41V171.54l-6.3-3.63V321A5.5,5.5,0,0,0,58.15,326.41Z" style="fill:#ebebeb"></path><polygon points="54.67 325.77 61.15 329.43 61.15 318.01 54.67 325.77" style="fill:#ebebeb"></polygon><path d="M282.34,32V195.42a16.82,16.82,0,0,1-8.4,14.54L66.4,329.3a5.5,5.5,0,0,1-8.25-4.76V161.08a16.78,16.78,0,0,1,8.4-14.54L274.09,27.2A5.5,5.5,0,0,1,282.34,32Z" style="fill:#fafafa"></path><path d="M276.83,27.45h0A4.52,4.52,0,0,1,281.34,32V195.42a15.83,15.83,0,0,1-7.9,13.67L65.9,328.43a4.42,4.42,0,0,1-2.24.61,4.51,4.51,0,0,1-4.51-4.5V161.08a15.83,15.83,0,0,1,7.9-13.67L274.59,28.06a4.46,4.46,0,0,1,2.24-.61m0-1a5.44,5.44,0,0,0-2.74.75L66.55,146.54a16.78,16.78,0,0,0-8.4,14.54V324.54a5.5,5.5,0,0,0,8.25,4.76L273.94,210a16.82,16.82,0,0,0,8.4-14.54V32a5.51,5.51,0,0,0-5.51-5.51Z" style="fill:#e0e0e0"></path><path d="M273.45,23.74a5.44,5.44,0,0,0-5.66-.11L60.25,143a16.79,16.79,0,0,0-8.4,14.54v10.4l6.3,3.63L276,45.75V30.92l3.66-3.66-6.24-3.53Z" style="fill:#C995FA"></path><path d="M282.34,32V42.11L58.15,171.54V161.08a16.78,16.78,0,0,1,8.4-14.54L274.09,27.2A5.5,5.5,0,0,1,282.34,32Z" style="fill:#C995FA"></path><path d="M282.34,32V42.11L58.15,171.54V161.08a16.78,16.78,0,0,1,8.4-14.54L274.09,27.2A5.5,5.5,0,0,1,282.34,32Z" style="fill:#fff;opacity:0.5;mix-blend-mode:overlay"></path><path d="M54,149.28a16.72,16.72,0,0,0-2.17,8.23v10.4l6.3,3.63V161.08a16.73,16.73,0,0,1,2.14-8.19Z" style="opacity:0.2"></path><path d="M164.26,246.11a9.32,9.32,0,0,1-4.68-1.2c-3.36-1.95-5.22-6-5.22-11.41,0-10.91,7.69-24.23,17.15-29.69,4.68-2.71,9.12-3.12,12.48-1.18s5.23,6,5.23,11.4c0,10.92-7.69,24.24-17.15,29.7A15.89,15.89,0,0,1,164.26,246.11Zm15.06-43.55a14.82,14.82,0,0,0-7.25,2.23c-9.14,5.28-16.57,18.16-16.57,28.71,0,5,1.65,8.69,4.65,10.43s7,1.31,11.36-1.18c9.14-5.28,16.57-18.16,16.57-28.72,0-5-1.65-8.69-4.65-10.42A8.16,8.16,0,0,0,179.32,202.56Z" style="fill:#455a64"></path><path d="M171.79,248.51a.58.58,0,0,1-.57-.57V196a.57.57,0,1,1,1.14,0v52A.58.58,0,0,1,171.79,248.51Z" style="fill:#C995FA"></path><path d="M148.82,237.71a.58.58,0,0,1-.49-.28.57.57,0,0,1,.21-.77L191.25,212a.55.55,0,0,1,.77.21.56.56,0,0,1-.21.77L149.1,237.64A.53.53,0,0,1,148.82,237.71Z" style="fill:#C995FA"></path><path d="M151.8,239.38a.6.6,0,0,1-.28-.08l-3.47-2,3.17-5.49a.56.56,0,1,1,1,.56l-2.6,4.51,2.49,1.44a.57.57,0,0,1,.2.78A.55.55,0,0,1,151.8,239.38Z" style="fill:#C995FA"></path><path d="M168.85,201.69a.6.6,0,0,1-.28-.08.57.57,0,0,1-.21-.77l3.27-5.66,3.38,1.95a.57.57,0,0,1-.57,1l-2.4-1.38-2.69,4.67A.59.59,0,0,1,168.85,201.69Z" style="fill:#C995FA"></path><path d="M216.32,183.39l-8.22,4.75c-.54.31-1,0-1-.74v-9.14a2.34,2.34,0,0,1,1-1.87l8.22-4.75c.54-.31,1,0,1,.74v9.15A2.33,2.33,0,0,1,216.32,183.39Z" style="fill:#C995FA"></path><path d="M231.9,174.26,223.67,179c-.53.31-1,0-1-.74v-9.14a2.36,2.36,0,0,1,1-1.87l8.23-4.75c.54-.31,1,0,1,.74v9.15A2.32,2.32,0,0,1,231.9,174.26Z" style="fill:#C995FA"></path><path d="M216.32,200.89l-8.22,4.75c-.54.31-1,0-1-.74v-9.15a2.33,2.33,0,0,1,1-1.86l8.22-4.75c.54-.31,1,0,1,.74V199A2.34,2.34,0,0,1,216.32,200.89Z" style="fill:#C995FA"></path><path d="M231.9,191.76l-8.23,4.75c-.53.31-1,0-1-.74v-9.15a2.34,2.34,0,0,1,1-1.86L231.9,180c.54-.31,1,0,1,.74v9.14A2.34,2.34,0,0,1,231.9,191.76Z" style="fill:#C995FA"></path><path d="M216.32,218.38l-8.22,4.75c-.54.31-1,0-1-.74v-9.14a2.34,2.34,0,0,1,1-1.87l8.22-4.75c.54-.31,1,0,1,.74v9.15A2.33,2.33,0,0,1,216.32,218.38Z" style="fill:#C995FA"></path><path d="M231.9,209.25,223.67,214c-.53.31-1,0-1-.73v-9.15a2.36,2.36,0,0,1,1-1.87l8.23-4.75c.54-.31,1,0,1,.74v9.15A2.32,2.32,0,0,1,231.9,209.25Z" style="fill:#C995FA"></path><path d="M247.48,165.13l-8.23,4.75c-.54.31-1,0-1-.73V160a2.34,2.34,0,0,1,1-1.87l8.23-4.74c.53-.32,1,0,1,.73v9.15A2.34,2.34,0,0,1,247.48,165.13Z" style="fill:#C995FA"></path><path d="M247.48,182.63l-8.23,4.75c-.54.31-1,0-1-.74v-9.15a2.32,2.32,0,0,1,1-1.86l8.23-4.75c.53-.31,1,0,1,.74v9.15A2.36,2.36,0,0,1,247.48,182.63Z" style="fill:#C995FA"></path><path d="M247.48,200.13l-8.23,4.74c-.54.31-1,0-1-.73V195a2.34,2.34,0,0,1,1-1.87l8.23-4.74c.53-.32,1,0,1,.73v9.15A2.38,2.38,0,0,1,247.48,200.13Z" style="fill:#C995FA"></path><path d="M263.05,156l-8.22,4.74c-.54.31-1,0-1-.73v-9.15a2.36,2.36,0,0,1,1-1.87l8.22-4.74c.54-.32,1,0,1,.73v9.15A2.36,2.36,0,0,1,263.05,156Z" style="fill:#C995FA"></path><path d="M263.05,173.5l-8.22,4.75c-.54.31-1,0-1-.74v-9.15a2.34,2.34,0,0,1,1-1.86l8.22-4.75c.54-.31,1,0,1,.74v9.15A2.33,2.33,0,0,1,263.05,173.5Z" style="fill:#C995FA"></path><path d="M216.32,200.89l-8.22,4.75c-.54.31-1,0-1-.74v-9.15a2.33,2.33,0,0,1,1-1.86l8.22-4.75c.54-.31,1,0,1,.74V199A2.34,2.34,0,0,1,216.32,200.89Z" style="opacity:0.2"></path><path d="M231.9,191.76l-8.23,4.75c-.53.31-1,0-1-.74v-9.15a2.34,2.34,0,0,1,1-1.86L231.9,180c.54-.31,1,0,1,.74v9.14A2.34,2.34,0,0,1,231.9,191.76Z" style="opacity:0.2"></path><path d="M247.48,182.63l-8.23,4.75c-.54.31-1,0-1-.74v-9.15a2.32,2.32,0,0,1,1-1.86l8.23-4.75c.53-.31,1,0,1,.74v9.15A2.36,2.36,0,0,1,247.48,182.63Z" style="opacity:0.2"></path><path d="M263.05,173.5l-8.22,4.75c-.54.31-1,0-1-.74v-9.15a2.34,2.34,0,0,1,1-1.86l8.22-4.75c.54-.31,1,0,1,.74v9.15A2.33,2.33,0,0,1,263.05,173.5Z" style="opacity:0.2"></path><path d="M263.05,191l-8.22,4.74c-.54.32-1,0-1-.73v-9.15a2.36,2.36,0,0,1,1-1.87l8.22-4.74c.54-.31,1,0,1,.73v9.15A2.36,2.36,0,0,1,263.05,191Z" style="fill:#C995FA"></path><path d="M216.32,218.38l-8.22,4.75c-.54.31-1,0-1-.74v-9.14a2.34,2.34,0,0,1,1-1.87l8.22-4.75c.54-.31,1,0,1,.74v9.15A2.33,2.33,0,0,1,216.32,218.38Z" style="opacity:0.30000000000000004"></path><path d="M231.9,209.25,223.67,214c-.53.31-1,0-1-.73v-9.15a2.36,2.36,0,0,1,1-1.87l8.23-4.75c.54-.31,1,0,1,.74v9.15A2.32,2.32,0,0,1,231.9,209.25Z" style="opacity:0.30000000000000004"></path><path d="M247.48,200.13l-8.23,4.74c-.54.31-1,0-1-.73V195a2.34,2.34,0,0,1,1-1.87l8.23-4.74c.53-.32,1,0,1,.73v9.15A2.38,2.38,0,0,1,247.48,200.13Z" style="opacity:0.30000000000000004"></path><path d="M263.05,191l-8.22,4.74c-.54.32-1,0-1-.73v-9.15a2.36,2.36,0,0,1,1-1.87l8.22-4.74c.54-.31,1,0,1,.73v9.15A2.36,2.36,0,0,1,263.05,191Z" style="opacity:0.30000000000000004"></path><path d="M121.93,212.17,81.69,235.41c-2.64,1.52-4.78-.1-4.78-3.61V187c0-3.52,2.14-7.6,4.78-9.12l40.24-23.24c2.64-1.52,4.78.09,4.78,3.61v44.77C126.71,206.56,124.57,210.65,121.93,212.17Z" style="fill:#455a64"></path><polygon points="109.62 181.21 88.53 193.38 94 184.51 115.09 172.34 109.62 181.21" style="fill:#C995FA"></polygon><polygon points="109.62 181.21 88.53 193.38 94 184.51 115.09 172.34 109.62 181.21" style="fill:#fff;opacity:0.2"></polygon><polygon points="109.62 205.56 88.53 217.74 88.53 193.38 109.62 181.21 109.62 205.56" style="fill:#C995FA"></polygon><polygon points="109.62 181.21 115.09 172.34 115.09 196.69 109.62 205.56 109.62 181.21" style="fill:#C995FA"></polygon><polygon points="109.62 181.21 115.09 172.34 115.09 196.69 109.62 205.56 109.62 181.21" style="opacity:0.2"></polygon><path d="M190.18,172.77,149.94,196c-2.64,1.52-4.78-.09-4.78-3.61V147.63c0-3.52,2.14-7.6,4.78-9.13l40.24-23.23c2.64-1.53,4.78.09,4.78,3.61v44.76C195,167.16,192.82,171.24,190.18,172.77Z" style="fill:#455a64"></path><polygon points="177.87 141.8 156.78 153.98 162.25 145.11 183.34 132.94 177.87 141.8" style="fill:#C995FA"></polygon><polygon points="177.87 166.16 156.78 178.33 156.78 153.98 177.87 141.8 177.87 166.16" style="fill:#C995FA"></polygon><polygon points="177.87 141.8 183.34 132.94 183.34 157.29 177.87 166.16 177.87 141.8" style="fill:#C995FA"></polygon><polygon points="177.87 141.8 183.34 132.94 183.34 157.29 177.87 166.16 177.87 141.8" style="opacity:0.2"></polygon><polygon points="156.78 153.98 162.25 145.11 162.25 169.46 156.78 178.33 156.78 153.98" style="opacity:0.2"></polygon><polygon points="177.87 166.16 156.78 178.33 162.25 169.46 183.34 157.29 177.87 166.16" style="opacity:0.30000000000000004"></polygon><polygon points="177.87 141.8 156.78 153.98 162.25 145.11 183.34 132.94 177.87 141.8" style="fill:#fff;opacity:0.2"></polygon><path d="M258.43,133.36,218.19,156.6c-2.64,1.52-4.78-.1-4.78-3.61V108.22c0-3.51,2.14-7.6,4.78-9.12l40.24-23.24c2.64-1.52,4.78.1,4.78,3.61v44.77C263.21,127.75,261.07,131.84,258.43,133.36Z" style="fill:#455a64"></path><path d="M225,115a.39.39,0,0,1-.3-.13.41.41,0,0,1,0-.5l5.47-8.87a.38.38,0,0,1,.14-.14l21.09-12.18a.42.42,0,0,1,.56.58l-5.47,8.87a.62.62,0,0,1-.14.14l-21.09,12.17A.42.42,0,0,1,225,115Zm5.76-9-4.55,7.4,19.58-11.31,4.56-7.4Zm15.33-3.61h0Z" style="fill:#C995FA"></path><path d="M225,139.34a.54.54,0,0,1-.21-.05.43.43,0,0,1-.2-.36V114.58a.42.42,0,0,1,.2-.36L245.91,102a.45.45,0,0,1,.42,0,.43.43,0,0,1,.2.36v24.35a.42.42,0,0,1-.2.36l-21.09,12.18A.54.54,0,0,1,225,139.34Zm.41-24.53v23.41l20.27-11.7V103.11Zm20.68,11.94h0Z" style="fill:#C995FA"></path><path d="M230.5,130.47a.54.54,0,0,1-.21-.05.41.41,0,0,1-.2-.36V105.71a.4.4,0,0,1,.2-.36l21.09-12.18a.43.43,0,0,1,.41,0,.42.42,0,0,1,.21.36v24.35a.41.41,0,0,1-.21.36L230.7,130.42A.46.46,0,0,1,230.5,130.47Zm.41-24.52v23.4l20.27-11.7V94.24Zm20.68,11.93h0Z" style="fill:#C995FA"></path><path d="M246.12,127.16H246a.41.41,0,0,1-.3-.4V102.4a.43.43,0,0,1,.06-.22l5.47-8.86a.39.39,0,0,1,.46-.18.41.41,0,0,1,.3.39v24.35a.43.43,0,0,1-.06.22L246.47,127A.42.42,0,0,1,246.12,127.16Zm.41-24.64V125.3l4.65-7.53V95Z" style="fill:#C995FA"></path><path d="M225,139.34a.46.46,0,0,1-.22-.06.42.42,0,0,1-.13-.57l5.47-8.87a.41.41,0,0,1,.7.44l-5.47,8.87A.42.42,0,0,1,225,139.34Z" style="fill:#C995FA"></path><path d="M121.93,238.19,81.69,261.43c-2.64,1.52-4.78-.09-4.78-3.61h0c0-3.51,2.14-7.6,4.78-9.12l40.24-23.24c2.64-1.52,4.78.1,4.78,3.61h0C126.71,232.59,124.57,236.67,121.93,238.19Z" style="fill:#C995FA"></path><path d="M121.93,256.75,81.69,280c-2.64,1.52-4.78-.1-4.78-3.61h0c0-3.52,2.14-7.6,4.78-9.12L121.93,244c2.64-1.52,4.78.09,4.78,3.61h0C126.71,251.15,124.57,255.23,121.93,256.75Z" style="fill:#C995FA"></path><path d="M121.93,275.31,81.69,298.55c-2.64,1.52-4.78-.1-4.78-3.61h0c0-3.52,2.14-7.6,4.78-9.13l40.24-23.23c2.64-1.53,4.78.09,4.78,3.61h0C126.71,269.7,124.57,273.79,121.93,275.31Z" style="fill:#C995FA"></path></g><g id="freepik--Character--inject-5"><path d="M404.26,285.54s2.67,3.83,1.15,6.48a8.45,8.45,0,0,1-2.5,2.7,18.76,18.76,0,0,0-3.49,3.29c-2.73,3.3-8.26,8.85-13.55,7.18-7.42-2.35.67-8.34.67-8.34Z" style="fill:#263238"></path><path d="M394.88,276.37l1,9.17-5.9,8.29-3.47,3s2.17,5.68,8.93-1.61c5-5.43,8.79-9.7,8.79-9.7v-9.17Z" style="fill:#ffa8a7"></path><path d="M372.37,278.61s2.39,4,.69,6.55a8.58,8.58,0,0,1-2.69,2.51,18.35,18.35,0,0,0-3.72,3c-2.95,3.1-8.86,8.24-14,6.2-7.23-2.87,1.26-8.27,1.26-8.27Z" style="fill:#263238"></path><path d="M363.66,268.8,364,278l-6.47,7.84-3.68,2.77s1.76,5.82,9-1c5.42-5.06,9.46-9.05,9.46-9.05l.66-9.14Z" style="fill:#ffa8a7"></path><path d="M366.26,160.23l-5.78,57.42a4.66,4.66,0,0,0,0,.65l2.31,54.57s4.62,3,11.51,0c0,0,4.89-34.43,2.39-48.54a6.92,6.92,0,0,1,.18-3.23c2.4-7.69,12.34-40,13.16-50.12Z" style="fill:#455a64"></path><path d="M385,181.42l-15.11-9.77s.74,6.65,8.36,12.65l3.23,21.61c1.91-6.52,4-14,5.67-20.54Z" style="fill:#37474f"></path><path d="M368.54,160.23c.25.23-4,16.84,11.94,21.68l4.9,43.65,8.73,54.32s6.38,2.37,10.61-1.74c0,0,2.72-36-2.65-52.93a9.17,9.17,0,0,1-.36-4.16c1.43-9.32,6.46-45.89-.51-58.93Z" style="fill:#455a64"></path><path d="M401.89,87.1l8.54,36.9a10.37,10.37,0,0,1-.87,7.05h0a10.35,10.35,0,0,1-14.47,4.19l-19.22-11.35V87.1Z" style="fill:#263238"></path><path d="M377,116.18a11.42,11.42,0,0,0-10.13,4.54c-3.18,4.16-15.37,20-15.37,20s-18-9-18.85-10.06-.38-3.22-.14-4.4.65-3.83.91-4.57c.46-1.29-1.45-.94-2.58.27s-1.62,3.57-2.19,4-4.83-4.51-6.91-6.88-3-4-4.43-3c-1,.7-.36,2.11,1.13,4.14a28.64,28.64,0,0,1,1.92,2.7c.17.36-.37.65-.59.85-.4.36-1.12,1-1.17,1.51a4.69,4.69,0,0,1-.06.92c-.19.68-1,1-1.26,1.66a8.3,8.3,0,0,0-.08,1.51c-.06.32-.24.61-.3.94a2.22,2.22,0,0,0,.67,1.74c1.45,1.74,3.44,2.4,5.35,3.46,1.59.88,3.23,1.26,5.06,2.07s23,15.53,26.41,13.67S376.63,130,376.63,130C381.63,121.72,377,116.18,377,116.18Z" style="fill:#e9a5a5"></path><path d="M375.05,114.81s-4.44-.55-9.86,5.89-8.09,9.75-8.09,9.75a36.22,36.22,0,0,0,9.25,7.92Z" style="fill:#C995FA"></path><path d="M375.05,114.81s-4.44-.55-9.86,5.89-8.09,9.75-8.09,9.75a36.22,36.22,0,0,0,9.25,7.92Z" style="opacity:0.2"></path><path d="M375.05,114.81l18.39,1.27a8.21,8.21,0,0,1,7.65,8.68,84,84,0,0,1-5.28,25.41s4.42,6.61,5.39,12c0,0-4.94,4.67-18,4.67s-16.92-6.56-16.92-6.56l1.86-16.69a18.12,18.12,0,0,1-2.46-13.23C367.28,122.92,375.05,114.81,375.05,114.81Z" style="fill:#C995FA"></path><path d="M396.46,79.16s1.13-4.3,1.9-4.23.68,3.85.68,3.85,3.58-.32,3.2.71-4.55,2.08-4.55,2.08Z" style="fill:#263238"></path><path d="M402.05,94.15c-1.64,12.16-11.87,12.16-11.87,12.16L368.7,96.86a8,8,0,0,1-2.12-4.68,14.22,14.22,0,0,1,0-4v0c.69-5.11,4.51-10.61,12.84-12.3a27,27,0,0,1,5.55-.53,25.73,25.73,0,0,1,2.68.13c6.49.64,11,3.66,13.17,8.36a15,15,0,0,1,1.07,3.32A21.1,21.1,0,0,1,402.05,94.15Z" style="fill:#263238"></path><polygon points="390.17 115.78 379.76 123.89 379.76 98.06 390.17 98.06 390.17 115.78" style="fill:#ffa8a7"></polygon><path d="M379.76,111.78a18.23,18.23,0,0,0,10.41-9.91V98.06H379.76Z" style="fill:#f28f8f"></path><path d="M382,78.91c-3.95,0-12.35,2.2-13.32,12.54s0,18.35,5.3,19.12,17.72-3.09,19.37-16.47S385.86,78.91,382,78.91Z" style="fill:#ffa8a7"></path><polygon points="375.79 95.82 375.79 101.92 372.22 100.82 375.79 95.82" style="fill:#f28f8f"></polygon><circle cx="379.76" cy="96.88" r="1.24" style="fill:#263238"></circle><path d="M372.83,96a1.24,1.24,0,1,1-1.24-1.24A1.23,1.23,0,0,1,372.83,96Z" style="fill:#263238"></path><path d="M370.08,93.42,372.51,92s-.93-1-1.86-.38A1.68,1.68,0,0,0,370.08,93.42Z" style="fill:#263238"></path><path d="M374.11,104.39a5.27,5.27,0,0,0,3.34-.9s.23,1.76-1.24,2.1A1.91,1.91,0,0,1,374.11,104.39Z" style="fill:#f28f8f"></path><path d="M372,82.43s1.49,14.27,20.89,14.71c0,0,5.86-14.18-5.72-18.78S372,82.43,372,82.43Z" style="fill:#263238"></path><path d="M389.64,97.66c-1.25,2.16-.93,4.78.81,5.68,1.12.58,4.42-.67,5.66-2.83s.55-4-1.15-5S390.88,95.5,389.64,97.66Z" style="fill:#ffa8a7"></path><path d="M379.76,115.14s-7.05,8.75,0,8.75,10.41-8.11,10.41-8.11Z" style="fill:#ffa8a7"></path><path d="M414.9,147.34c-1.64-7-5.91-15.34-8.26-19.42l-9.85,6.26s5.74,9.84,7.49,14.47c1,5.51.56,15.43-.57,20.84a3.83,3.83,0,0,1-1.46,2.32c-2,1.47-2.7,2.94-4.14,4.76-1.13,1.43-2.13,1.81-1.94,2.25a1.94,1.94,0,0,0,2.59.91,13.1,13.1,0,0,0,2.8-1.83,20.32,20.32,0,0,1-2.65,5.72c-2.64,4-2.63,6.35,3.15,6.22,3.63-.08,6.39-2.63,8.61-11.52.65-2.56,1.92-7,2.46-10.28C414.9,157.1,415.4,152,414.9,147.34Z" style="fill:#ffa8a7"></path><path d="M394.3,116.18s-6.51,6.6,6,25.47c0,0,7.6-.42,11.12-5.91l-5.05-10.85a15.24,15.24,0,0,0-12.09-8.71Z" style="fill:#C995FA"></path><path d="M394.3,116.18s-6.51,6.6,6,25.47c0,0,7.6-.42,11.12-5.91l-5.05-10.85a15.24,15.24,0,0,0-12.09-8.71Z" style="opacity:0.2"></path></g><g id="freepik--Objects--inject-5"><path d="M402.83,384.63H376.46v27.93h0c0,1.95,1.29,3.9,3.86,5.39,5.15,3,13.5,3,18.65,0,2.57-1.49,3.86-3.44,3.86-5.39h0Z" style="fill:#C995FA"></path><path d="M402.83,384.63H376.46v27.93h0c0,1.95,1.29,3.9,3.86,5.39,5.15,3,13.5,3,18.65,0,2.57-1.49,3.86-3.44,3.86-5.39h0Z" style="opacity:0.4"></path><ellipse cx="389.64" cy="384.65" rx="13.18" ry="7.61" style="fill:#C995FA"></ellipse><path d="M413,370.55H366.28v10.58h0c0,3.45,2.28,6.9,6.84,9.54,9.13,5.27,23.92,5.27,33.05,0,4.56-2.64,6.84-6.09,6.84-9.54h0Z" style="fill:#C995FA"></path><path d="M413,370.55H366.28v10.58h0c0,3.45,2.28,6.9,6.84,9.54,9.13,5.27,23.92,5.27,33.05,0,4.56-2.64,6.84-6.09,6.84-9.54h0Z" style="opacity:0.2"></path><path d="M406.17,380.12c-9.13,5.27-23.92,5.27-33.05,0s-9.13-13.81,0-19.08,23.92-5.27,33.05,0S415.3,374.85,406.17,380.12Z" style="fill:#C995FA"></path><path d="M402.83,338.39H376.46v27.94h0c0,1.94,1.29,3.89,3.86,5.38,5.15,3,13.5,3,18.65,0,2.57-1.49,3.86-3.43,3.86-5.38h0Z" style="fill:#C995FA"></path><path d="M402.83,338.39H376.46v27.94h0c0,1.94,1.29,3.89,3.86,5.38,5.15,3,13.5,3,18.65,0,2.57-1.49,3.86-3.43,3.86-5.38h0Z" style="opacity:0.2"></path><ellipse cx="389.64" cy="338.41" rx="13.18" ry="7.61" style="fill:#C995FA"></ellipse><polygon points="342.14 455.39 308.04 435.7 308.04 402.08 325.09 392.35 342.14 421.76 342.14 455.39" style="fill:#C995FA"></polygon><polygon points="342.14 455.39 308.04 435.7 308.04 402.08 325.09 392.35 342.14 421.76 342.14 455.39" style="fill:#fff;opacity:0.2"></polygon><polygon points="342.14 421.76 325.09 392.35 347.62 379.33 364.67 408.75 342.14 421.76" style="fill:#C995FA"></polygon><polygon points="342.14 455.39 342.14 421.76 364.67 408.75 364.67 442.38 342.14 455.39" style="fill:#C995FA"></polygon><polygon points="342.14 455.39 342.14 421.76 364.67 408.75 364.67 442.38 342.14 455.39" style="opacity:0.2"></polygon></g><g id="freepik--3d-model--inject-5"><polygon points="248.26 356.59 168.17 278.93 181.85 224.63 261.94 302.29 248.26 356.59" style="fill:#C995FA"></polygon><polygon points="346.75 278.15 261.94 302.29 248.26 356.59 333.07 332.45 346.75 278.15" style="fill:#C995FA"></polygon><polygon points="346.75 278.15 261.94 302.29 248.26 356.59 333.07 332.45 346.75 278.15" style="opacity:0.2"></polygon><polygon points="266.66 200.5 181.85 224.63 261.94 302.29 346.75 278.15 266.66 200.5" style="fill:#C995FA"></polygon><polygon points="266.66 200.5 181.85 224.63 261.94 302.29 346.75 278.15 266.66 200.5" style="fill:#fff;opacity:0.2"></polygon><path d="M310.69,225.87l-75.15-18.93L227,241h0c-1.4,5.55.87,12,7.14,18.11,12.54,12.17,36.33,18.16,53.14,13.38,8.4-2.38,13.47-7,14.86-12.56h0Z" style="fill:#C995FA"></path><path d="M310.69,225.87l-75.15-18.93L227,241h0c-1.4,5.55.87,12,7.14,18.11,12.54,12.17,36.33,18.16,53.14,13.38,8.4-2.38,13.47-7,14.86-12.56h0Z" style="opacity:0.2"></path><ellipse cx="273.1" cy="216.47" rx="22.37" ry="38.74" transform="translate(-3.52 428.41) rotate(-75.86)" style="fill:#C995FA"></ellipse></g></svg>